<svg width="80" height="82" viewBox="0 0 80 82" fill="none" xmlns="http://www.w3.org/2000/svg">
  <circle cx="40" cy="42.0004" r="40" fill="#9DC7C5"/>
  <path d="M48.4379 38.9124L41.3339 42.9924V34.8324C41.3339 28.5924 36.4379 28.5924 36.4379 24.6564V22.9764H38.7419V18.0804H27.4139V22.9764H29.7179V24.6564C29.7179 28.5924 24.8219 28.5924 24.8219 34.8324V52.5924C24.8219 55.1844 26.4539 56.9124 29.0459 56.9124H31.0619V62.0004H50.8379C50.7419 61.7124 50.7419 61.2804 50.7419 60.9924V60.7044C51.8459 60.2724 53.0939 60.0804 54.3419 60.0804C55.6379 60.0804 56.9339 60.2724 58.0379 60.7044V60.9924C58.0379 61.3764 58.0379 61.7124 57.9419 62.0004H64.1819V48.9444C61.7819 43.7604 53.5259 39.6804 48.4379 38.9124ZM28.8539 19.4724H37.3019V21.5844H28.8539V19.4724ZM31.0619 55.5204H29.0459C27.1259 55.5204 26.2619 54.4644 26.2619 52.5444V34.8324C26.2619 29.1684 31.1579 29.6484 31.1579 24.6564V22.9764H34.9979V24.6564C34.9979 29.6484 39.8939 29.1684 39.8939 34.8324V43.8564L31.0619 48.9444V55.5204ZM48.6299 40.3044C53.2379 41.1684 59.7659 44.4324 62.3579 48.5604H48.3419C48.0539 47.2164 46.5179 46.0644 44.7899 46.0644C43.0619 46.0644 41.5259 47.2164 41.2379 48.5604H34.1339L48.6299 40.3044ZM49.8299 45.5844C51.4139 45.5844 52.6619 44.9124 52.6619 43.8084C52.6619 42.6564 51.3659 41.9364 49.8299 41.9364C48.2459 41.9364 47.0939 42.7044 47.0939 43.8084C47.0939 44.8644 48.1979 45.5844 49.8299 45.5844ZM49.8779 42.8964C50.5979 42.8964 51.3179 43.2324 51.3179 43.8084C51.3179 44.3364 50.6459 44.6244 49.8299 44.6244C48.9659 44.6244 48.3419 44.2884 48.3419 43.8084C48.3419 43.2324 49.1099 42.8964 49.8779 42.8964ZM47.0939 49.1364C47.0939 50.3844 46.0379 51.4404 44.7899 51.4404C43.5419 51.4404 42.4859 50.3844 42.4859 49.1364C42.6779 48.2244 43.3499 47.5044 44.7899 47.5044C46.1819 47.5044 46.8539 48.2244 47.0939 49.1364ZM62.7419 60.6084H59.3819C59.1899 58.0164 57.0779 55.8564 54.3899 55.8564C51.7019 55.8564 49.5899 58.0164 49.3979 60.6084H32.5019V49.9524H41.2379C41.6219 51.5844 43.0619 52.8804 44.7899 52.8804C46.5179 52.8804 47.9579 51.5844 48.3419 49.9524H62.7419V60.6084ZM37.3499 53.4564C35.7659 53.4564 34.6139 54.7524 34.6139 56.2884C34.6139 57.8724 35.7659 59.0724 37.3499 59.0724C38.9339 59.0724 40.1819 57.9204 40.1819 56.2884C40.1819 54.7044 38.9339 53.4564 37.3499 53.4564ZM37.3499 57.8244C36.4379 57.8244 35.8619 57.1524 35.8619 56.2884C35.8619 55.3764 36.4859 54.8004 37.3979 54.8004C38.2619 54.8004 38.8379 55.3764 38.8379 56.2884C38.8379 57.2004 38.2619 57.8244 37.3499 57.8244ZM54.3419 58.6884C53.2379 58.6884 52.1819 58.8324 51.2219 59.1684C51.8939 58.1124 53.0459 57.2964 54.3899 57.2964C55.7339 57.2964 56.8859 58.1124 57.5579 59.1684C56.5499 58.8324 55.4459 58.6884 54.3419 58.6884Z" fill="white"/>
</svg>
