<svg width="80" height="80" viewBox="0 0 80 80" fill="none" xmlns="http://www.w3.org/2000/svg">
  <circle cx="40" cy="40.0004" r="40" fill="#9DC7C5"/>
  <path d="M46.04 29.2484H42.624C43.352 26.0564 43.576 22.5284 43.576 19.2804C43.576 15.5844 42.008 13.0084 39.656 13.0084C37.08 13.0084 35.848 15.5844 35.848 20.6244C35.848 23.0884 36.632 26.2804 37.528 29.2484H33.496L29.8 39.7764V61.0004H49.736V39.7764L46.04 29.2484ZM37.528 20.6244C37.528 16.4804 38.2 14.6884 39.656 14.6884C41 14.6884 41.896 16.4804 41.896 19.2804C41.896 22.6404 41.728 26.0004 41.056 29.2484H39.208C38.312 26.2804 37.528 23.0324 37.528 20.6244ZM48.056 59.3764H31.48V40.0004L34.728 30.9284H38.032L38.984 33.8404C39.208 34.4004 39.544 34.5124 39.768 34.5124C40.44 34.5124 40.776 34.0644 40.552 33.3924C40.272 32.6084 40.048 31.8244 39.768 30.9284H44.808L48.056 40.0004V59.3764ZM39.208 43.1364C39.208 41.4564 38.088 40.2244 36.296 40.2244C34.504 40.2244 33.384 41.4564 33.384 43.1364C33.384 44.9284 34.504 46.1604 36.296 46.1604C38.088 46.1604 39.208 44.9284 39.208 43.1364ZM43.016 40.2244L35.064 54.0004L36.52 54.7844L44.36 41.0084L43.016 40.2244ZM34.896 43.1364C34.896 42.4084 35.456 41.7364 36.296 41.7364C37.136 41.7364 37.584 42.4084 37.584 43.1364C37.584 43.9764 37.136 44.5364 36.296 44.5364C35.456 44.5364 34.896 43.9764 34.896 43.1364ZM40.552 51.7604C40.552 53.5524 41.672 54.7844 43.464 54.7844C45.256 54.7844 46.376 53.5524 46.376 51.7604C46.376 50.0804 45.256 48.8484 43.464 48.8484C41.672 48.8484 40.552 50.0804 40.552 51.7604ZM44.752 51.7604C44.752 52.6004 44.304 53.1604 43.464 53.1604C42.624 53.1604 42.064 52.6004 42.064 51.7604C42.064 51.0324 42.624 50.3604 43.464 50.3604C44.304 50.3604 44.752 51.0324 44.752 51.7604Z" fill="white"/>
</svg>
