<svg width="80" height="80" viewBox="0 0 80 80" fill="none" xmlns="http://www.w3.org/2000/svg">
  <circle cx="40" cy="40.0004" r="40" fill="#9DC7C5"/>
  <path d="M22.8916 27.8533L17.4316 51.5833H22.9756L23.3116 50.3653H19.0276L24.1096 28.1893C24.3616 27.1813 25.1176 26.7613 25.9576 26.7613H52.6276C53.6356 26.7613 54.5596 26.9293 54.5596 28.1053C54.5596 28.3573 54.5596 28.6093 54.4756 28.9453L53.4676 33.2293H59.1796C60.4396 33.2293 60.8596 33.8173 60.8596 34.7413V40.5373L66.0676 41.0413C67.4116 41.1673 67.7476 41.7973 67.7476 42.7213C67.7476 43.0573 67.6636 43.4773 67.5796 43.8973L65.8156 51.5413H67.0756L68.8396 43.7293C68.9236 43.3093 69.0076 42.8893 69.0076 42.5533C69.0076 40.7893 67.8316 39.9913 66.4036 39.8653L62.1196 39.4453V34.7413C62.1196 33.1453 61.1956 32.0113 59.2636 32.0113H55.0636L55.7356 29.1973C55.8196 28.8613 55.9036 28.4413 55.9036 28.0213C55.9036 26.6773 55.0636 25.5433 53.0476 25.5433H25.5796C24.0676 25.5433 23.1436 26.7613 22.8916 27.8533ZM19.6996 28.9873H12.3076L12.0556 30.2053H19.5316L19.6996 28.9873ZM18.9436 33.1033H7.35161L7.09961 34.3213H18.6076L18.9436 33.1033ZM54.0556 41.2933H57.2896C58.8016 41.2933 59.3056 40.5373 59.3056 38.5213V36.2533C59.3056 35.5813 59.1376 34.6573 57.7936 34.6573H55.3156C54.4756 34.6573 53.6776 35.1613 53.4676 36.0853L52.6276 39.5293C52.3756 40.5373 52.9636 41.2933 54.0556 41.2933ZM57.2476 40.0753H54.7276C53.8876 40.0753 53.9296 39.5713 54.0556 39.0673L54.6016 36.7993C54.7696 36.0433 55.1056 35.8753 55.6936 35.8753H57.4156C57.8356 35.8753 58.0876 36.0433 58.0876 36.7993V38.2693C58.0876 39.6553 57.9196 40.0753 57.2476 40.0753ZM17.9356 37.2193H12.1396L11.8036 38.4373H17.5996L17.9356 37.2193ZM16.9276 41.3353H8.69561L8.44361 42.5533H16.6756L16.9276 41.3353ZM28.7716 57.0013C31.7956 57.0013 34.1476 54.3133 34.1476 51.4573C34.1476 48.9373 32.3836 47.3413 30.0316 47.3413C27.0076 47.3413 24.6556 50.0293 24.6556 52.8853C24.6556 55.4053 26.4196 57.0013 28.7716 57.0013ZM59.0116 57.0013C62.0356 57.0013 64.3876 54.3133 64.3876 51.4573C64.3876 48.9373 62.6236 47.3413 60.2716 47.3413C57.2476 47.3413 54.8956 50.0293 54.8956 52.8853C54.8956 55.4053 56.6596 57.0013 59.0116 57.0013ZM28.8556 55.7413C27.0916 55.7413 25.9156 54.4813 25.9156 52.7173C25.9156 50.5333 27.7636 48.6013 29.9476 48.6013C31.7116 48.6013 32.8876 49.8613 32.8876 51.6253C32.8876 53.8093 31.0396 55.7413 28.8556 55.7413ZM59.0956 55.7413C57.3316 55.7413 56.1556 54.4813 56.1556 52.7173C56.1556 50.5333 58.0036 48.6013 60.1876 48.6013C61.9516 48.6013 63.1276 49.8613 63.1276 51.6253C63.1276 53.8093 61.2796 55.7413 59.0956 55.7413ZM53.8876 50.3653H36.0796L35.7436 51.5833H53.5516L53.8876 50.3653Z" fill="white" stroke="white" stroke-width="0.4"/>
</svg>
